# xmcd CD database file generated by Grip 3.0.5
# 
# Track frame offsets:
#       150
#       11450
#       25071
#       36144
#       50469
#       62140
#       75660
#       85652
#       94435
#       111218
#       120868
#       132417
#       143343
#       153660
#       165119
#       177478
#       189595
#       202050
# 
# Disc length: 2862 seconds
# 
# Revision: 1
# Processed by: cddbd v1.5.1PL0 Copyright (c) Steve Scherf et al.
# Submitted via: Grip 3.0.5
# 
DISCID=e40b2c12
DTITLE=Willie Nelson - To all the girls I've loved before
DYEAR=2002
DGENRE=Country
TTITLE0=Is there something on your mind
TTITLE1=Home is where you're happy
TTITLE2=I'm going to lose a lot of teardrops
TTITLE3=Will you remember mine
TTITLE4=I hope so
TTITLE5=A moment isn't very long
TTITLE6=Healing hands of time
TTITLE7=Right from wrong
TTITLE8=I let my mind wonder
TTITLE9=Ashamed
TTITLE10=Some other time
TTITLE11=A new way to cry
TTITLE12=I feel so sorry for him
TTITLE13=I'll stay around
TTITLE14=Country Willie
TTITLE15=Pages
TTITLE16=She's not for you
TTITLE17=To all the girls I've loved before (live)
EXTD=
EXTT0=
EXTT1=
EXTT2=
EXTT3=
EXTT4=
EXTT5=
EXTT6=
EXTT7=
EXTT8=
EXTT9=
EXTT10=
EXTT11=
EXTT12=
EXTT13=
EXTT14=
EXTT15=
EXTT16=
EXTT17=
PLAYORDER=
